<svg xmlns="http://www.w3.org/2000/svg" viewBox="0 0 176.8 68.63"><title>epiqk-logo</title><path d="M49.47,68.63H39.8v-52h2.32L46,21.16a25.45,25.45,0,0,1,2.85-2.32A21.77,21.77,0,0,1,52,17a19.07,19.07,0,0,1,3.46-1.25,14.63,14.63,0,0,1,3.62-.46,19.63,19.63,0,0,1,7.47,1.42,18.46,18.46,0,0,1,6.12,4A18.83,18.83,0,0,1,76.82,27a21.21,21.21,0,0,1,1.51,8.14,22,22,0,0,1-1.51,8.35,18.55,18.55,0,0,1-4.13,6.29,17.92,17.92,0,0,1-6.12,4,20.29,20.29,0,0,1-7.47,1.37,11.4,11.4,0,0,1-2.51-.28,17.06,17.06,0,0,1-2.46-.76q-1.21-.47-2.39-1.07t-2.27-1.23ZM68.7,35.12a11.51,11.51,0,0,0-.76-4.29,9.55,9.55,0,0,0-2.06-3.22,8.88,8.88,0,0,0-3.06-2,9.94,9.94,0,0,0-3.73-.7,9.8,9.8,0,0,0-3.71.7,8.92,8.92,0,0,0-3,2,9.54,9.54,0,0,0-2.06,3.22,11.5,11.5,0,0,0-.76,4.29,11.2,11.2,0,0,0,.76,4.18,9.73,9.73,0,0,0,2.06,3.23,9.22,9.22,0,0,0,3,2.07,9.4,9.4,0,0,0,3.71.74,9.53,9.53,0,0,0,3.73-.74,9.18,9.18,0,0,0,3.06-2.07,9.75,9.75,0,0,0,2.06-3.23A11.21,11.21,0,0,0,68.7,35.12Z"/><path d="M95,6.4a6.14,6.14,0,0,1-.51,2.5,6.42,6.42,0,0,1-1.39,2A6.7,6.7,0,0,1,91,12.29a6.45,6.45,0,0,1-5,0,6.44,6.44,0,0,1-3.41-3.39,6.13,6.13,0,0,1-.51-2.5,6.18,6.18,0,0,1,.51-2.48A6.39,6.39,0,0,1,86,.51a6.45,6.45,0,0,1,5,0,6.72,6.72,0,0,1,2.06,1.37,6.37,6.37,0,0,1,1.39,2A6.19,6.19,0,0,1,95,6.4ZM93.31,54.28H83.64V16.63h9.67Z"/><path d="M137.08,68.63h-9.67V51.75q-1.09.63-2.23,1.23a23.64,23.64,0,0,1-2.36,1.07,17.08,17.08,0,0,1-2.46.76,11.4,11.4,0,0,1-2.51.28,19.22,19.22,0,0,1-7.47-1.46,18.63,18.63,0,0,1-6.12-4.1,19.2,19.2,0,0,1-4.13-6.31,21.1,21.1,0,0,1-1.51-8.1A21.2,21.2,0,0,1,100.13,27a18.82,18.82,0,0,1,4.13-6.28,18.45,18.45,0,0,1,6.12-4,19.62,19.62,0,0,1,7.47-1.42,14.42,14.42,0,0,1,3.6.46A19.75,19.75,0,0,1,124.91,17a20.63,20.63,0,0,1,3.22,1.88,33.09,33.09,0,0,1,2.9,2.32l3.73-4.46h2.32Zm-9.67-33.5a10,10,0,0,0-.76-3.81A11,11,0,0,0,124.6,28a10.23,10.23,0,0,0-3-2.29,8.25,8.25,0,0,0-3.71-.86,9.6,9.6,0,0,0-3.71.72,8.83,8.83,0,0,0-3,2.06,9.7,9.7,0,0,0-2,3.22,11.52,11.52,0,0,0-.74,4.24,12,12,0,0,0,.74,4.34,9.22,9.22,0,0,0,2,3.22,8.65,8.65,0,0,0,3,2,10,10,0,0,0,3.71.69,8.24,8.24,0,0,0,3.71-.86,10.23,10.23,0,0,0,3-2.29,11,11,0,0,0,2.06-3.27A10,10,0,0,0,127.41,35.12Z"/><path d="M166.7,24.88,150.87,54H139.41l15.93-29.14L139.41,3.62h11.46"/><path d="M17,45.05a5.44,5.44,0,0,0,1.13.23q.56.05,1.13.05a9.43,9.43,0,0,0,2.71-.39,9.79,9.79,0,0,0,2.44-1.11,9.1,9.1,0,0,0,2-1.76,9.23,9.23,0,0,0,1.46-2.3l7,7.07a18.93,18.93,0,0,1-3.08,3.41,19.41,19.41,0,0,1-3.76,2.57,18.81,18.81,0,0,1-4.25,1.6,19.28,19.28,0,0,1-4.59.54A19,19,0,0,1,5.65,49.38,19.29,19.29,0,0,1,1.52,43.1,20.65,20.65,0,0,1,0,35.1a21.33,21.33,0,0,1,1.51-8.16A18.43,18.43,0,0,1,11.77,16.61a19.41,19.41,0,0,1,7.47-1.44,18.94,18.94,0,0,1,4.61.56,19.28,19.28,0,0,1,8.05,4.2A19.11,19.11,0,0,1,35,23.36Zm4.92-19.79a5.57,5.57,0,0,0-1.32-.32,12.6,12.6,0,0,0-1.35-.07,9.6,9.6,0,0,0-3.71.72,8.83,8.83,0,0,0-3,2.06,9.7,9.7,0,0,0-2,3.22,11.52,11.52,0,0,0-.74,4.24q0,.53.05,1.2T10,37.65q.12.69.3,1.32a4.88,4.88,0,0,0,.46,1.13Z"/><polyline points="166.71 28.83 166.71 3.62 176.79 3.62 176.79 54.04 166.71 54.04 166.71 43.95 166.71 28.83"/></svg>