<svg xmlns="http://www.w3.org/2000/svg" viewBox="0 0 312.24 307.51"><defs><style>.a{isolation:isolate;}.b{fill:#fff;}.c{fill:#2e3192;}</style></defs><title>hero-display</title><g class="a"><path d="M288.38,370.41l3.74-.52c.07,4.05,2.33,7.66,5,8l-3.74.52C290.72,378.08,288.45,374.47,288.38,370.41Z" transform="translate(-260.43 -109.93)"/><polygon points="23.65 8.25 27.4 7.72 31.69 259.96 27.95 260.49 23.65 8.25"/><path d="M288,111.51l3.74-.52c-2.27.32-3.95,3.07-3.89,6.66l-3.74.52C284,114.58,285.71,111.83,288,111.51Z" transform="translate(-260.43 -109.93)"/><path class="b" d="M288,111.51l3.74-.52a3.24,3.24,0,0,1,.9,0l-3.74.52A3.24,3.24,0,0,0,288,111.51Z" transform="translate(-260.43 -109.93)"/><path d="M287.83,110.52l3.74-.52a3.69,3.69,0,0,1,1,0l-3.74.52A3.69,3.69,0,0,0,287.83,110.52Z" transform="translate(-260.43 -109.93)"/><polygon class="b" points="303.53 47.58 307.28 47.06 311.58 299.3 307.83 299.82 303.53 47.58"/><polygon points="304.2 47.67 307.94 47.15 312.24 299.39 308.49 299.91 304.2 47.67"/><path class="b" d="M572,409.23c.06,3.59-1.62,6.34-3.88,6.66l-3.74.52c2.26-.32,3.94-3.07,3.88-6.66Z" transform="translate(-260.43 -109.93)"/><polygon points="32.99 268.53 303.04 306.48 306.79 305.96 36.73 268 32.99 268.53"/><path d="M568.12,415.89l-3.74.52a3.24,3.24,0,0,1-.9,0l3.74-.52A3.24,3.24,0,0,0,568.12,415.89Z" transform="translate(-260.43 -109.93)"/><path d="M568.27,416.88l-3.74.52c2.57-.36,4.48-3.48,4.41-7.56l3.74-.52C572.74,413.4,570.84,416.52,568.27,416.88Z" transform="translate(-260.43 -109.93)"/><path class="b" d="M558.93,149.47c2.71.38,5,4,5,8l4.3,252.24c.07,4.05-2.08,7-4.79,6.66l-270.05-38c-2.71-.38-5-4-5-8l-4.3-252.24c-.07-4.05,2.08-7,4.79-6.66Z" transform="translate(-260.43 -109.93)"/><path class="b" d="M558.93,149.47l3.74-.52c2.71.38,5,4,5,8l-3.74.52C563.9,153.45,561.64,149.85,558.93,149.47Z" transform="translate(-260.43 -109.93)"/><path d="M558.91,148.48c3.08.43,5.64,4.52,5.72,9.12l4.3,252.24c.08,4.61-2.36,8-5.43,7.56l-270.05-38c-3.08-.43-5.64-4.52-5.72-9.12l-4.3-252.24c-.08-4.61,2.36-8,5.43-7.56Zm9.35,261.27L564,157.51c-.07-4.05-2.33-7.66-5-8l-270.05-38c-2.71-.38-4.86,2.61-4.79,6.66l4.3,252.24c.07,4.05,2.33,7.66,5,8l270.05,38c2.71.38,4.86-2.61,4.79-6.66" transform="translate(-260.43 -109.93)"/><path d="M558.91,148.48l3.74-.52c3.08.43,5.64,4.52,5.72,9.12l-3.74.52C564.55,153,562,148.91,558.91,148.48Z" transform="translate(-260.43 -109.93)"/><polygon class="b" points="28.44 1.58 32.19 1.06 302.24 39.02 298.5 39.54 28.44 1.58"/><polygon points="28.42 0.59 32.17 0.07 302.22 38.02 298.48 38.55 28.42 0.59"/></g><path class="b" d="M559.52,149.1c2.35.33,4.31,3.45,4.37,7l.32,18.49L284.3,135.21,284,116.71c-.06-3.5,1.8-6.09,4.15-5.76Z" transform="translate(-260.43 -109.93)"/><path d="M559.5,148.1c2.72.38,5,4,5,8l.32,18.62c0,.48-.25.83-.56.78L283.66,136.1l-.33-19.48c-.07-4.05,2.08-7,4.79-6.66Zm4.7,26.44-.32-18.49c-.06-3.5-2-6.62-4.37-7L288.14,111c-2.35-.33-4.21,2.25-4.15,5.76l.32,18.49,279.9,39.34" transform="translate(-260.43 -109.93)"/><path d="M502.4,148.92c1,.14,1.79,1.43,1.82,2.9l.1,5.6c0,1.46-.75,2.54-1.73,2.4L291.1,130.08c-1-.14-1.79-1.43-1.81-2.89l-.1-5.6c0-1.46.75-2.54,1.72-2.4Zm1.25,8.4-.1-5.6c0-.92-.52-1.73-1.14-1.81L290.93,120.18c-.61-.09-1.09.58-1.08,1.5l.1,5.6c0,.92.52,1.73,1.13,1.81l211.48,29.72c.61.09,1.1-.58,1.08-1.5" transform="translate(-260.43 -109.93)"/><path class="b" d="M502.41,149.9c.61.09,1.12.9,1.14,1.81l.1,5.6c0,.92-.47,1.59-1.08,1.5L291.08,129.09c-.61-.09-1.12-.89-1.13-1.81l-.1-5.6c0-.92.47-1.59,1.08-1.5Z" transform="translate(-260.43 -109.93)"/><g class="a"><path class="b" d="M554.18,157.35c.61.09,1.12.89,1.13,1.81l.1,5.6c0,.92-.47,1.59-1.08,1.5l-3.75-.53c-.61-.09-1.12-.9-1.14-1.81l-.1-5.6c0-.92.47-1.59,1.08-1.5Z" transform="translate(-260.43 -109.93)"/><path d="M554.16,156.36c1,.14,1.79,1.43,1.82,2.9l.1,5.6c0,1.45-.75,2.53-1.73,2.4l-3.75-.53c-1-.14-1.79-1.44-1.82-2.9l-.1-5.6c0-1.46.75-2.53,1.73-2.4Zm1.24,8.4-.1-5.6c0-.92-.52-1.73-1.13-1.81l-3.75-.53c-.61-.09-1.1.58-1.08,1.5l.1,5.6c0,.92.53,1.73,1.14,1.81l3.75.53c.61.09,1.09-.58,1.08-1.5" transform="translate(-260.43 -109.93)"/></g><path class="b" d="M538.17,155.35c.61.09,1.12.9,1.14,1.81l.1,5.6c0,.92-.47,1.59-1.08,1.5l-3.75-.53c-.61-.09-1.12-.89-1.13-1.81l-.1-5.6c0-.92.47-1.59,1.08-1.5Z" transform="translate(-260.43 -109.93)"/><path d="M538.16,154.36c1,.14,1.79,1.43,1.82,2.9l.1,5.6c0,1.45-.75,2.53-1.73,2.4l-3.75-.53c-1-.14-1.79-1.44-1.82-2.9l-.1-5.6c0-1.46.75-2.53,1.73-2.4Zm1.25,8.4-.1-5.6c0-.92-.53-1.73-1.14-1.81l-3.75-.53c-.61-.09-1.09.58-1.08,1.5l.1,5.6c0,.92.52,1.73,1.13,1.81l3.75.53c.61.09,1.1-.58,1.08-1.5" transform="translate(-260.43 -109.93)"/><path d="M521.16,151.36c1,.14,1.79,1.43,1.82,2.9l.1,5.6c0,1.45-.75,2.53-1.73,2.4l-3.75-.53c-1-.14-1.79-1.44-1.81-2.89l-.1-5.6c0-1.46.75-2.54,1.72-2.4Zm1.25,8.4-.1-5.6c0-.92-.53-1.73-1.14-1.81l-3.75-.53c-.61-.09-1.09.58-1.07,1.5l.1,5.6c0,.92.52,1.73,1.13,1.81l3.75.53c.61.09,1.1-.58,1.08-1.5" transform="translate(-260.43 -109.93)"/><path class="b" d="M521.17,152.35c.61.09,1.12.9,1.14,1.81l.1,5.6c0,.92-.47,1.59-1.08,1.5l-3.75-.53c-.61-.09-1.12-.89-1.13-1.81l-.1-5.6c0-.92.47-1.59,1.08-1.5Z" transform="translate(-260.43 -109.93)"/><polygon class="c" points="146.97 56.42 148.14 124.74 34.16 108.72 33 40.41 146.97 56.42"/><polygon class="c" points="147.97 135.42 149.14 203.74 35.17 187.72 34 119.4 147.97 135.42"/><path d="M260.43,162.83l114,16,1.16,68.32-114-16Zm114.46,83.26-1.13-66.33L261.11,163.92l1.13,66.33,112.65,15.83" transform="translate(-260.43 -109.93)"/><polygon class="b" points="113.33 69.82 114.45 136.16 1.81 120.33 0.68 53.99 113.33 69.82"/><path d="M261.43,242.83l114,16,1.16,68.32-114-16Zm114.46,83.26-1.13-66.34L262.11,243.91l1.13,66.34,112.65,15.83" transform="translate(-260.43 -109.93)"/><polygon class="b" points="114.32 149.81 115.45 216.16 2.81 200.33 1.68 133.98 114.32 149.81"/></svg>