<?xml version="1.0" encoding="utf-8"?>
<!-- Generator: Adobe Illustrator 21.1.0, SVG Export Plug-In . SVG Version: 6.00 Build 0)  -->
<svg version="1.1" id="_x31_084a417-9858-42b6-ae26-d97e116abc6c"
	 xmlns="http://www.w3.org/2000/svg" xmlns:xlink="http://www.w3.org/1999/xlink" x="0px" y="0px" viewBox="0 0 929.7 818.7"
	 style="enable-background:new 0 0 929.7 818.7;" xml:space="preserve">
<style type="text/css">
	.st0{fill:#F4F4F4;}
	.st1{fill:#1F1F89;}
	.st2{fill:#3131DB;}
	.st3{fill:#F76D59;}
	.st4{fill:#F7F5EF;}
	.st5{fill:#8E574A;}
	.st6{opacity:0.5;fill:none;stroke:#0A5DE2;stroke-width:2;stroke-linecap:round;stroke-miterlimit:10;}
	.st7{fill:#AFC6F5;}
	.st8{fill:#3878FF;}
	.st9{fill:#0A5DE2;}
	.st10{fill:#2B159B;}
	.st11{opacity:0.4;}
	.st12{fill:#D64536;}
	.st13{fill:url(#SVGID_1_);}
	.st14{fill:#B0D8FF;}
	.st15{fill:#BCCCFD;}
	.st16{fill:url(#SVGID_2_);}
	.st17{fill:#80392E;}
</style>
<image style="display:none;overflow:visible;" width="1420" height="643" xlink:href="../../../../../../Users/sarvesh/Desktop/Screenshot 2019-03-01 at 3.34.05 PM.png"  transform="matrix(1.2962 0 0 1.2962 -910.9656 -8.8442)">
</image>
<title>product teardown</title>
<g>
	<g>
		<polygon class="st0" points="121.2,580.9 118.8,601.4 104.4,638.9 117.6,642.9 127.7,603.9 129,581.8 		"/>
		<polygon class="st1" points="90.4,680 96.8,745.2 94.7,802.5 116.9,802.5 118.1,798.2 102.9,796.2 111,745.5 118.3,682.4 		"/>
		<polygon class="st2" points="83,679.3 78,734.8 44,780 48,801.3 58.2,801.3 52.1,796.7 51.1,783 83.6,746.5 113,681 		"/>
		<polygon class="st3" points="129,581.8 128.7,561.2 124.5,560.7 121.2,580.9 		"/>
		<g>
			<path class="st3" d="M88.7,610.5c-1.5,7.5-1.6,19,9.7,20.8c11.2,1.8,17.9-5.3,19.6-12.8c1.6-7.5-1.1-17.1-12.7-18.6
				C97.6,598.9,89.9,604.4,88.7,610.5z"/>
			<path class="st1" d="M96.8,630.7c-8-2.2-11.1-9.9-9.9-17.8c1.4-9.6,10.9-14.8,18.4-13.1c0.5,0.1,0.9,0.3,1.3,0.4
				c0.1,1.2,0.1,2.4-0.2,3.3c-1.3,3.7-4.6,6.8-8.3,7.9C97.9,611.5,95.6,628.3,96.8,630.7z"/>
			<path class="st3" d="M95.8,612.8c-1.1-0.2-2.3,0.1-3.3,0.7c-3.3,1.8-2.1,6.7,0.8,8.2c0.9,0.5,2,0.7,3,0.8
				c0.9,0.1,1.9,0.1,2.7-0.4c0.8-0.5,1.2-1.3,1.4-2.2c0.2-0.9,0.1-1.8-0.1-2.6C99.8,615.3,97.9,613.1,95.8,612.8z"/>
			
				<ellipse transform="matrix(0.9369 -0.3496 0.3496 0.9369 -205.1235 77.4405)" class="st4" cx="111.9" cy="606.9" rx="4" ry="5.3"/>
		</g>
		<circle class="st5" cx="126.8" cy="558.3" r="4.7"/>
		<path class="st4" d="M144.1,589.7L137,592c-2.9,8.4-7.7,15.9-14,22.1L109.7,627l-16.3,11l-12.1,45l38,3.6l1.3-49.6l14.1-17.6
			c5.8-7.2,9.7-15.8,11.4-24.9L144.1,589.7z"/>
		<path class="st4" d="M162.1,477.4h-52.9c-9,0-16.4,7.3-16.4,16.4v52.9c0,9,7.3,16.4,16.4,16.4h52.9c9,0,16.4-7.3,16.4-16.4v-52.9
			C178.5,484.8,171.2,477.4,162.1,477.4z"/>
		<circle class="st3" cx="150.2" cy="561.5" r="4.7"/>
		<polygon class="st3" points="136.3,594.5 145.6,597.8 153.1,563.6 147.8,562.4 		"/>
		<path class="st3" d="M156.4,509.6c0,12-21.7,43.8-21.7,43.8S113,521.6,113,509.6c0-12,9.7-21.7,21.7-21.7
			C146.7,487.8,156.4,497.6,156.4,509.6z"/>
		<circle class="st4" cx="134.7" cy="507.7" r="10.4"/>
		<line class="st6" x1="25.7" y1="802.1" x2="193.8" y2="802.1"/>
	</g>
	<g>
		<path class="st4" d="M552,167.3H366.3c-10.5,0-19,8.5-19,19v444.1c0,10.5,8.5,19,19,19H552c10.5,0,19-8.5,19-19V186.3
			C571,175.8,562.5,167.3,552,167.3z"/>
		<path class="st1" d="M552,167.3H366.3c-10.5,0-19,8.5-19,19v19.2H571v-19.2C571,175.8,562.5,167.3,552,167.3z"/>
		<path class="st1" d="M347.3,606.3v24.2c0,10.5,8.5,19,19,19H552c10.5,0,19-8.5,19-19v-24.2H347.3z"/>
		<path class="st3" d="M535.9,218.7H483c-9,0-16.4,7.3-16.4,16.4V288c0,9,7.3,16.4,16.4,16.4h52.9c9,0,16.4-7.3,16.4-16.4V235
			C552.3,226,544.9,218.7,535.9,218.7z"/>
		<path class="st7" d="M535.9,478.6H483c-9,0-16.4,7.3-16.4,16.4v52.9c0,9,7.3,16.4,16.4,16.4h52.9c9,0,16.4-7.3,16.4-16.4V495
			C552.3,485.9,544.9,478.6,535.9,478.6z"/>
		<path class="st3" d="M434.7,478.6h-52.9c-9,0-16.4,7.3-16.4,16.4v52.9c0,9,7.3,16.4,16.4,16.4h52.9c9,0,16.4-7.3,16.4-16.4V495
			C451.1,485.9,443.8,478.6,434.7,478.6z"/>
		<line class="st6" x1="346.4" y1="651.7" x2="587.5" y2="651.7"/>
	</g>
	<g>
		<g>
			<g>
				
					<rect x="640.4" y="483.1" transform="matrix(0.9865 -0.164 0.164 0.9865 -85.2076 112.9364)" class="st1" width="2.2" height="179.1"/>
			</g>
			<g>
				
					<rect x="586.5" y="483.1" transform="matrix(0.9865 -0.164 0.164 0.9865 -85.9436 104.1046)" class="st1" width="2.2" height="179.1"/>
			</g>
			<g>
				<rect x="579.2" y="520.7" class="st1" width="54.4" height="2.2"/>
			</g>
			<g>
				<rect x="583" y="544.3" class="st1" width="54.4" height="2.2"/>
			</g>
			<g>
				<rect x="586.9" y="567.9" class="st1" width="54.4" height="2.2"/>
			</g>
			<g>
				<rect x="590.8" y="591.5" class="st1" width="54.4" height="2.2"/>
			</g>
			<g>
				<rect x="594.6" y="615.1" class="st1" width="54.4" height="2.2"/>
			</g>
			<g>
				<rect x="598.5" y="638.7" class="st1" width="54.4" height="2.2"/>
			</g>
		</g>
		<g>
			<g>
				
					<rect x="467.1" y="571.5" transform="matrix(0.1641 -0.9864 0.9864 0.1641 -99.5614 1027.7875)" class="st8" width="179.1" height="2.2"/>
			</g>
			<g>
				
					<rect x="521" y="571.5" transform="matrix(0.1641 -0.9864 0.9864 0.1641 -54.5157 1080.9419)" class="st8" width="179.1" height="2.2"/>
			</g>
			<g>
				<rect x="564.6" y="520.7" class="st8" width="54.4" height="2.2"/>
			</g>
			<g>
				<rect x="560.7" y="544.3" class="st8" width="54.4" height="2.2"/>
			</g>
			<g>
				<rect x="556.9" y="567.9" class="st8" width="54.4" height="2.2"/>
			</g>
			<g>
				<rect x="553" y="591.5" class="st8" width="54.4" height="2.2"/>
			</g>
			<g>
				<rect x="549.2" y="615.1" class="st8" width="54.4" height="2.2"/>
			</g>
			<g>
				<rect x="545.3" y="638.7" class="st8" width="54.4" height="2.2"/>
			</g>
		</g>
		<g>
			<rect x="566.9" y="481.5" class="st9" width="66.3" height="6.6"/>
		</g>
	</g>
	<g>
		<polygon class="st4" points="691.2,451.7 684.7,384.9 676.4,313.5 682.9,312.6 697.7,380.3 720.9,382.2 745,313.5 751.5,314.4 
			733.9,387.7 734.8,449.9 		"/>
		<path class="st3" d="M699.5,360.5c-1.8,6.4,1,16.7,7.4,18.4c6.4,1.8,14-5.7,15.8-12.1c1.8-6.4-2-13-8.4-14.8
			C707.8,350.3,701.2,354.1,699.5,360.5z"/>
		<path class="st10" d="M708,356.8c-1.3-0.4-3.1-1.3-3.8-2.5c-0.1-0.1-0.1-0.2-0.1-0.3c2.8-2.1,6.5-2.9,10.2-1.9
			c6.4,1.8,10.2,8.4,8.4,14.8c-1.3,4.6-5.5,9.6-10.1,11.6c0.1-1.3,0.4-2.6,0.7-3.8c1.3-5.1,2.8-10.1,4.4-15.1
			C714.4,358.8,711.2,357.9,708,356.8z"/>
		<path class="st3" d="M715.5,366.6c0.9-0.6,2.1-0.9,3-0.5c0.2,0.1,0.4,0.2,0.6,0.4c0.5,0.5,0.6,1.2,0.6,1.9c-0.2,1.9-1.7,3.4-3.5,4
			c-0.5,0.2-1,0.2-1.6,0.2c-0.5-0.1-1-0.3-1.3-0.8C712.2,370.1,714.3,367.5,715.5,366.6z"/>
		<polygon class="st8" points="734.8,449.9 728.4,552.4 721.3,552.4 715.3,450.7 708.9,451 705.1,554.9 699.6,554.7 691.2,451.7 
			690,439.1 734.7,439.6 		"/>
		<polygon class="st8" points="728.4,552.4 744,554.1 743.4,556.5 720.6,556.5 721.3,552.4 		"/>
		<polygon class="st8" points="705.1,554.9 705.1,557.8 683.7,558.6 683.7,555.9 699.6,554.7 		"/>
		<path class="st10" d="M711,369.2c-3.9,0.4-7-3.5-10.9-4c-0.2,0-0.5,0-0.7,0.1c-0.3,0.1-0.5,0.4-0.6,0.7c-0.5,1-1,1.9-1.5,2.9
			c-0.5,1-1,2-1.2,3.1c-0.3,1.3-0.1,2.6,0.1,3.9c0.2,1,0.4,2.1,0.8,3c0.8,1.7,2.4,2.9,4.2,3.5c1.8,0.6,3.7,0.7,5.5,0.6
			c1.3-0.1,2.6-0.4,3.7-0.9c2.5-1.3,4.1-4.3,3.6-7.1c-0.1-0.7-0.3-1.4-0.2-2.1c0.1-0.7,0.4-1.3,0.8-1.9c0.4-0.7,3-4,0.9-4.1
			c-0.6,0-1.5,1-2,1.4C712.7,368.7,711.8,369.1,711,369.2z"/>
		<g class="st11">
			<polygon class="st7" points="736.7,337.2 746.1,337.2 751.5,314.4 745,313.5 			"/>
			<polygon class="st7" points="682.9,312.6 676.4,313.5 679.1,337.2 688.3,337.2 			"/>
		</g>
		<path class="st8" d="M841.5,240.3H625.2c-10.6,0-19.2,8.6-19.2,19.2v32.2c0,10.6,8.6,19.2,19.2,19.2h216.3
			c10.6,0,19.2-8.6,19.2-19.2v-32.2C860.8,248.9,852.1,240.3,841.5,240.3z"/>
		<path class="st4" d="M835.1,240.3H618.8c-10.6,0-19.2,8.6-19.2,19.2v32.2c0,10.6,8.6,19.2,19.2,19.2h216.3
			c10.6,0,19.2-8.6,19.2-19.2v-32.2C854.4,248.9,845.8,240.3,835.1,240.3z"/>
		<path class="st7" d="M838.2,294.6l-10.4-10.8c2.7-3.2,4.1-7.2,4.1-11.3c0-9.7-7.9-17.6-17.6-17.6c-9.7,0-17.6,7.9-17.6,17.6
			c0,9.7,7.9,17.6,17.6,17.6c3.6,0,7.1-1.1,10.1-3.2l10.5,10.9c0.4,0.5,1,0.7,1.7,0.7c0.6,0,1.2-0.2,1.6-0.6
			C839.1,297,839.1,295.6,838.2,294.6L838.2,294.6z M814.4,259.5c7.2,0,13,5.8,13,13c0,7.2-5.8,13-13,13c-7.2,0-13-5.8-13-13
			C801.4,265.3,807.2,259.5,814.4,259.5L814.4,259.5z M814.4,259.5"/>
		<line class="st6" x1="620.6" y1="558.8" x2="850.6" y2="558.8"/>
		<circle class="st3" cx="678.8" cy="309.8" r="5.6"/>
		<circle class="st3" cx="746" cy="311.3" r="5.6"/>
	</g>
	<g>
		
			<ellipse transform="matrix(0.934 -0.3573 0.3573 0.934 -86.5539 191.2986)" class="st7" cx="474.4" cy="329.9" rx="6.1" ry="6.1"/>
		<path class="st8" d="M461.7,301.2l-52.1-9.2c-8.9-1.6-17.4,4.4-19,13.3l-9.2,52.1c-1.6,8.9,4.4,17.4,13.3,19l52.1,9.2
			c8.9,1.6,17.4-4.4,19-13.3l9.2-52.1C476.6,311.2,470.6,302.7,461.7,301.2z"/>
		<g>
			<path class="st8" d="M209.4,596.8h38.3c0.9,0,1.7-0.5,2-1.3s0.2-1.7-0.4-2.4l-36.9-39.8l-3.2,3l33.4,36.1h-33.3V596.8z"/>
		</g>
		<g>
			<polygon class="st12" points="478.7,328.4 495.2,334.8 543,339.3 527.1,350.6 493.4,342.5 476.3,334.7 			"/>
			
				<ellipse transform="matrix(0.934 -0.3573 0.3573 0.934 -81.8594 208.7544)" class="st7" cx="524" cy="325.9" rx="13.4" ry="13.4"/>
			<linearGradient id="SVGID_1_" gradientUnits="userSpaceOnUse" x1="576.7339" y1="407.0149" x2="567.0683" y2="466.495">
				<stop  offset="3.252340e-03" style="stop-color:#241084"/>
				<stop  offset="0.9896" style="stop-color:#0A5DE2"/>
			</linearGradient>
			<polygon class="st13" points="586.8,376.6 581.3,432.4 583.1,481.5 564.1,481.5 563.1,477.9 576.1,476.1 569.1,432.7 
				562.9,378.6 			"/>
			<path class="st3" d="M471.1,334.2c7,2.9,30.5,9.1,38.1,8.5l15.8-1.3l16.3-4.3l35.9,17.6L558,381.2L525.4,354l-19.3-0.9
				c-7.9-0.4-30.5-8.9-37.3-13L471.1,334.2z"/>
			<path class="st1" d="M538.6,317.7c-2.8-6.3-14-7.9-20.3-4.9c-0.4,0.2-0.7,0.4-1,0.6c0.1,1.1,0.4,2.1,0.9,2.9c1.9,3,5.4,5,8.9,5.3
				c0,0,0.3,0.7,0.7,1.8c0.4-0.5,0.9-0.9,1.4-1.1c1-0.4,2.1-0.4,3.1-0.1c3.2,0.9,3.2,5.4,1,7.4c-0.7,0.6-1.6,1-2.5,1.3
				c-0.1,0-0.2,0-0.3,0.1c-0.3,4.3,0,4.9,0.9,6.2C536.4,333.4,542.3,326,538.6,317.7z"/>
			<polygon class="st8" points="645.3,369.2 613.2,383.2 576.3,354.8 557.3,380.8 613.2,397.9 646.3,375.7 653.3,383.6 655.7,381.3 
							"/>
			
				<ellipse transform="matrix(0.934 -0.3573 0.3573 0.934 -89.2528 189.1817)" class="st7" cx="467.4" cy="336.1" rx="6.1" ry="6.1"/>
		</g>
		<g>
			<path class="st8" d="M207.5,179.7h43.3v435h-43.3V179.7z M246.3,184.1h-34.4v426.1h34.4V184.1z"/>
		</g>
		
			<rect x="201.5" y="591.4" transform="matrix(-1 -1.224647e-16 1.224647e-16 -1 458.202 1222.2489)" class="st4" width="55.1" height="39.5"/>
		<g>
			<path class="st8" d="M209.4,433.3h38.3c0.9,0,1.7-0.5,2-1.3s0.2-1.7-0.4-2.4l-36.9-39.8l-3.2,3l33.4,36.1h-33.3V433.3z"/>
		</g>
		<g>
			<path class="st8" d="M209.4,474.2h38.3c0.9,0,1.7-0.5,2-1.3c0.4-0.8,0.2-1.7-0.4-2.4l-36.9-39.8l-3.2,3l33.4,36.1h-33.3V474.2z"
				/>
		</g>
		<g>
			<path class="st8" d="M209.4,515h38.3c0.9,0,1.7-0.5,2-1.3c0.4-0.8,0.2-1.7-0.4-2.4l-36.9-39.8l-3.2,3l33.4,36.1h-33.3V515z"/>
		</g>
		<g>
			<path class="st8" d="M209.4,555.9h38.3c0.9,0,1.7-0.5,2-1.3s0.2-1.7-0.4-2.4l-36.9-39.8l-3.2,3l33.4,36.1h-33.3V555.9z"/>
		</g>
		<g>
			<path class="st8" d="M209.4,393.4h38.3c0.9,0,1.7-0.5,2-1.3c0.4-0.8,0.2-1.7-0.4-2.4l-36.9-39.8l-3.2,3l33.4,36.1h-33.3V393.4z"
				/>
		</g>
		<g>
			<path class="st8" d="M209.4,353.4h38.3c0.9,0,1.7-0.5,2-1.3c0.4-0.8,0.2-1.7-0.4-2.4l-36.9-39.8l-3.2,3l33.4,36.1h-33.3V353.4z"
				/>
		</g>
		<g>
			<path class="st8" d="M209.4,313.6h38.3c0.9,0,1.7-0.5,2-1.3c0.4-0.8,0.2-1.7-0.4-2.4L212.5,270l-3.2,3l33.4,36.1h-33.3V313.6z"/>
		</g>
		<g>
			<path class="st8" d="M209.4,273.7h38.3c0.9,0,1.7-0.5,2-1.3c0.4-0.8,0.2-1.7-0.4-2.4l-36.9-39.8l-3.2,3l33.4,36.1h-33.3V273.7z"
				/>
		</g>
		<g>
			<path class="st8" d="M209.4,233.8h38.3c0.9,0,1.7-0.5,2-1.3c0.4-0.8,0.2-1.7-0.4-2.4l-36.9-39.8l-3.2,3l33.4,36.1h-33.3V233.8z"
				/>
		</g>
		<g>
			<path class="st8" d="M209.4,193.9h38.3c0.9,0,1.7-0.5,2-1.3c0.4-0.8,0.2-1.7-0.4-2.4l-36.9-39.8l-3.2,3l33.4,36.1h-33.3V193.9z"
				/>
		</g>
		
			<rect x="207.5" y="135.6" transform="matrix(-1 -1.224647e-16 1.224647e-16 -1 485.2264 330.2586)" class="st1" width="70.2" height="59.1"/>
		
			<rect x="102.1" y="135.6" transform="matrix(-1 -1.224647e-16 1.224647e-16 -1 274.3838 305.0879)" class="st1" width="70.2" height="34"/>
		<g>
			<path class="st8" d="M103.3,139.9h346.5c1.2,0,2.2-1,2.2-2.2s-1-2.2-2.2-2.2H103.3c-1.2,0-2.2,1-2.2,2.2S102.1,139.9,103.3,139.9
				z"/>
		</g>
		<g>
			<rect x="431.5" y="148" class="st8" width="2.2" height="143.8"/>
		</g>
		<path class="st14" d="M227.1,136.2"/>
		
			<rect x="182.7" y="623.8" transform="matrix(-1 -1.224647e-16 1.224647e-16 -1 458.2018 1265.0081)" class="st8" width="92.7" height="17.4"/>
		<g>
			<path class="st8" d="M242.4,139.3c0.3,0,0.6-0.1,0.8-0.3l18.5-18.5H431l17.4,17.4c0.4,0.4,1.1,0.4,1.6,0c0.4-0.4,0.4-1.1,0-1.6
				l-18-18H260.7l-19.1,19.1c-0.4,0.4-0.4,1.1,0,1.6C241.8,139.2,242.1,139.3,242.4,139.3z"/>
		</g>
		<g>
			<path class="st8" d="M101.8,139.3c0.4,0,0.8-0.2,1-0.6l18.5-35.3h44.8l17.4,34.2c0.3,0.5,0.9,0.8,1.5,0.5
				c0.5-0.3,0.8-0.9,0.5-1.5l-18-35.4h-47.5l-19.1,36.5c-0.3,0.5-0.1,1.2,0.5,1.5C101.5,139.3,101.6,139.3,101.8,139.3z"/>
		</g>
		<circle class="st4" cx="432.6" cy="148" r="8.1"/>
		<g>
			<path class="st8" d="M384.6,120.5c0.5,0,0.9-0.3,1.1-0.8c0.2-0.6-0.2-1.2-0.7-1.4L221.2,68.4c-0.2-0.1-0.5-0.1-0.8,0l-77.6,32.8
				c-0.6,0.2-0.8,0.9-0.6,1.4c0.2,0.6,0.9,0.8,1.4,0.6l77.2-32.6l163.4,49.8C384.4,120.5,384.5,120.5,384.6,120.5z"/>
		</g>
		<g>
			<path class="st8" d="M246.6,139.4c0.3,0,0.5,0,0.8-0.1c1.1-0.4,1.7-1.7,1.3-2.9l-25.8-67.8c-0.3-0.9-1.3-1.5-2.2-1.4
				c-1,0.1-1.8,0.8-2,1.8l-13.3,66.2c-0.2,1.2,0.5,2.4,1.7,2.6c1.2,0.2,2.4-0.5,2.6-1.7l11.8-58.7l23.1,60.7
				C244.9,138.9,245.8,139.4,246.6,139.4z"/>
		</g>
		<circle class="st15" cx="220.9" cy="69.4" r="4.5"/>
		<g>
			<path class="st8" d="M407.9,139.5c0.2,0,0.5-0.1,0.7-0.2l21.7-17.6v16.4c0,0.6,0.5,1.1,1.1,1.1c0.6,0,1.1-0.5,1.1-1.1v-18.7
				c0-0.4-0.2-0.8-0.6-1c-0.4-0.2-0.8-0.1-1.2,0.1l-23.5,19c-0.5,0.4-0.5,1.1-0.2,1.6C407.3,139.4,407.6,139.5,407.9,139.5z"/>
		</g>
		<g>
			<path class="st8" d="M386.9,139.5c0.2,0,0.5-0.1,0.7-0.2l21.7-17.6v16.4c0,0.6,0.5,1.1,1.1,1.1c0.6,0,1.1-0.5,1.1-1.1v-18.7
				c0-0.4-0.2-0.8-0.6-1c-0.4-0.2-0.8-0.1-1.2,0.1l-23.5,19c-0.5,0.4-0.5,1.1-0.2,1.6C386.3,139.4,386.6,139.5,386.9,139.5z"/>
		</g>
		<g>
			<path class="st8" d="M365.9,139.5c0.2,0,0.5-0.1,0.7-0.2l21.7-17.6v16.4c0,0.6,0.5,1.1,1.1,1.1c0.6,0,1.1-0.5,1.1-1.1v-18.7
				c0-0.4-0.2-0.8-0.6-1c-0.4-0.2-0.8-0.1-1.2,0.1l-23.5,19c-0.5,0.4-0.5,1.1-0.2,1.6C365.3,139.4,365.6,139.5,365.9,139.5z"/>
		</g>
		<g>
			<path class="st8" d="M344.9,139.5c0.2,0,0.5-0.1,0.7-0.2l21.7-17.6v16.4c0,0.6,0.5,1.1,1.1,1.1c0.6,0,1.1-0.5,1.1-1.1v-18.7
				c0-0.4-0.2-0.8-0.6-1c-0.4-0.2-0.8-0.1-1.2,0.1l-23.5,19c-0.5,0.4-0.5,1.1-0.2,1.6C344.3,139.4,344.6,139.5,344.9,139.5z"/>
		</g>
		<g>
			<path class="st8" d="M323.9,139.5c0.2,0,0.5-0.1,0.7-0.2l21.7-17.6v16.4c0,0.6,0.5,1.1,1.1,1.1s1.1-0.5,1.1-1.1v-18.7
				c0-0.4-0.2-0.8-0.6-1c-0.4-0.2-0.8-0.1-1.2,0.1l-23.5,19c-0.5,0.4-0.5,1.1-0.2,1.6C323.3,139.4,323.6,139.5,323.9,139.5z"/>
		</g>
		<g>
			<path class="st8" d="M302.9,139.5c0.2,0,0.5-0.1,0.7-0.2l21.7-17.6v16.4c0,0.6,0.5,1.1,1.1,1.1s1.1-0.5,1.1-1.1v-18.7
				c0-0.4-0.2-0.8-0.6-1c-0.4-0.2-0.8-0.1-1.2,0.1l-23.5,19c-0.5,0.4-0.5,1.1-0.2,1.6C302.3,139.4,302.6,139.5,302.9,139.5z"/>
		</g>
		<g>
			<path class="st8" d="M281.9,139.5c0.2,0,0.5-0.1,0.7-0.2l21.7-17.6v16.4c0,0.6,0.5,1.1,1.1,1.1s1.1-0.5,1.1-1.1v-18.7
				c0-0.4-0.2-0.8-0.6-1c-0.4-0.2-0.8-0.1-1.2,0.1l-23.5,19c-0.5,0.4-0.5,1.1-0.2,1.6C281.3,139.4,281.6,139.5,281.9,139.5z"/>
		</g>
		<g>
			<path class="st8" d="M260.9,139.5c0.2,0,0.5-0.1,0.7-0.2l21.7-17.6v16.4c0,0.6,0.5,1.1,1.1,1.1c0.6,0,1.1-0.5,1.1-1.1v-18.7
				c0-0.4-0.2-0.8-0.6-1c-0.4-0.2-0.8-0.1-1.2,0.1l-23.5,19c-0.5,0.4-0.5,1.1-0.2,1.6C260.3,139.4,260.6,139.5,260.9,139.5z"/>
		</g>
		<g>
			<path class="st8" d="M136.8,139.5c0.3,0,0.6-0.1,0.8-0.4l28.2-33.3v32.3c0,0.6,0.5,1.1,1.1,1.1c0.6,0,1.1-0.5,1.1-1.1v-35.3
				c0-0.5-0.3-0.9-0.7-1c-0.4-0.2-0.9,0-1.2,0.3l-30.2,35.6c-0.4,0.5-0.3,1.2,0.1,1.6C136.3,139.4,136.5,139.5,136.8,139.5z"/>
		</g>
		<g>
			<path class="st8" d="M115.1,139.5c0.4,0,0.7-0.2,0.9-0.5l21.5-32.5v31.6c0,0.6,0.5,1.1,1.1,1.1c0.6,0,1.1-0.5,1.1-1.1v-35.3
				c0-0.5-0.3-0.9-0.8-1.1c-0.5-0.1-1,0-1.2,0.4l-23.5,35.6c-0.3,0.5-0.2,1.2,0.3,1.5C114.7,139.5,114.9,139.5,115.1,139.5z"/>
		</g>
		<circle class="st1" cx="432.6" cy="294.7" r="7"/>
		<line class="st6" x1="142.9" y1="642.8" x2="311" y2="642.8"/>
	</g>
	<g>
		<polygon class="st3" points="842.6,714.4 840.1,679.7 843.9,654.2 857.1,578.9 850.8,578 836.2,644.4 813.5,646.2 789.9,578.9 
			783.5,579.9 800.8,651.6 806.8,679.1 806.1,712.5 		"/>
		<polygon class="st1" points="811.3,621.7 809,641.5 822.5,642.6 830.8,621.7 		"/>
		<circle class="st4" cx="822.5" cy="628.9" r="13.6"/>
		<path class="st9" d="M847.7,495.1h-52.9c-9,0-16.4,7.3-16.4,16.4v52.9c0,9,7.3,16.4,16.4,16.4h52.9c9,0,16.4-7.3,16.4-16.4v-52.9
			C864.1,502.5,856.8,495.1,847.7,495.1z"/>
		<path class="st1" d="M827.5,628c0.3,0.1,0.6,0.3,0.9,0.1c0.3-0.1,0.4-0.4,0.6-0.6c0.7-0.9,2.3-0.9,3.1-0.1
			c0.8,0.8,0.9,2.2,0.3,3.2c-0.6,1-1.7,1.6-2.8,1.8c-0.8,2.7-1.1,5.5-0.9,8.3c1.9,0.1,3.7,0.3,5.6,0.4c0.4,0,0.8,0,1.1-0.2
			c0.3-0.2,0.4-0.6,0.4-0.9c0.7-3.2,1-6.5,1-9.8c0-3.2-0.4-6.5-2-9.3c-2-3.3-10.1-8.7-14.1-5.7C816.3,618.7,824.5,626.6,827.5,628z"
			/>
		<path class="st1" d="M816.2,623.3c-2.3,2.3-5.3,4-8.5,4.1c-0.1-3.6,1.4-7.2,4.2-9.6c1.5-1.3,6.7-4.2,8.8-2.8
			C822.9,616.5,817.8,621.8,816.2,623.3z"/>
		<polygon class="st9" points="841.3,689.8 806.5,688.1 779.8,807.9 767.4,800.3 782.5,818.7 818.1,720 817.5,764.7 841.7,796.7 
			843.2,808.3 843.8,813.2 848.1,812.7 848.9,795.1 830.2,764.7 843.4,714.4 		"/>
		<polygon class="st4" points="843.4,611.4 851,614 857.1,578.9 850.8,578 		"/>
		<polygon class="st4" points="799.6,606.7 790.8,610.2 783.5,579.9 789.9,578.9 		"/>
		<polygon class="st4" points="829.1,644.9 822.6,656.5 819.3,645.7 		"/>
		<circle class="st4" cx="786.1" cy="575.3" r="5.5"/>
		<circle class="st4" cx="854.6" cy="576.3" r="5.5"/>
		<linearGradient id="SVGID_2_" gradientUnits="userSpaceOnUse" x1="810.9789" y1="708.6274" x2="792.0021" y2="756.0693">
			<stop  offset="0" style="stop-color:#241084;stop-opacity:0.8"/>
			<stop  offset="0.9896" style="stop-color:#0A5DE2;stop-opacity:0"/>
		</linearGradient>
		<path class="st16" d="M808.3,747.1l8.4-23.3l0.8-7.4l-10.9-28.3l-11.6,52C799.9,742.8,804.7,745.3,808.3,747.1z"/>
		<g>
			<g>
				<circle class="st4" cx="821.1" cy="523.4" r="11.2"/>
				<path class="st4" d="M843.1,557.4c-0.2-11.7-9.7-21.1-21.5-21.1s-21.3,9.4-21.5,21.1H843.1z"/>
			</g>
		</g>
		<line class="st6" x1="735.9" y1="816.5" x2="904" y2="816.5"/>
	</g>
	<line class="st6" x1="510.3" y1="660.5" x2="678.4" y2="660.5"/>
	<g>
		<path class="st9" d="M336.8,386.8h-52.9c-9,0-16.4,7.3-16.4,16.4v52.9c0,9,7.3,16.4,16.4,16.4h52.9c9,0,16.4-7.3,16.4-16.4v-52.9
			C353.2,394.1,345.9,386.8,336.8,386.8z"/>
		<polygon class="st4" points="288.1,611.4 281.6,545.1 273.3,474.1 279.8,473.2 294.5,540.5 317.5,542.3 341.5,474.1 347.9,475.1 
			330.4,547.9 331.4,609.6 		"/>
		<circle class="st3" cx="277.9" cy="470.5" r="5.5"/>
		<circle class="st3" cx="342.4" cy="472.3" r="5.5"/>
		<circle class="st3" cx="306.5" cy="520.3" r="14.1"/>
		<circle class="st1" cx="306.5" cy="522.5" r="14.1"/>
		<polygon class="st8" points="331.4,609.6 325,711.4 317.9,711.4 312,610.4 305.7,610.7 301.8,713.8 296.4,713.7 288.1,611.4 
			286.8,598.8 331.2,599.4 		"/>
		<polygon class="st8" points="325,711.4 340.4,713.1 339.9,715.5 317.2,715.5 317.9,711.4 		"/>
		<polygon class="st8" points="301.8,713.8 301.8,716.7 280.6,717.5 280.6,714.9 296.4,713.7 		"/>
		<line class="st6" x1="256" y1="716.9" x2="379.8" y2="716.9"/>
	</g>
	<g>
		<path class="st17" d="M497.7,741.4c0,0.2,0,0.3-0.1,0.5c0,0,0,0.1,0,0.1c0,0.1-0.1,0.3-0.2,0.4c0,0,0,0.1,0,0.1
			c-0.1,0.2-0.2,0.3-0.3,0.5c0,0-0.1,0.1-0.1,0.1c-0.1,0.1-0.3,0.3-0.4,0.4c0,0,0,0-0.1,0.1c-0.2,0.2-0.4,0.3-0.6,0.4
			c-0.1,0-0.1,0.1-0.2,0.1c-0.2,0.1-0.4,0.2-0.6,0.3c-0.1,0-0.2,0.1-0.2,0.1c-0.2,0.1-0.4,0.2-0.7,0.3c-0.1,0-0.2,0.1-0.3,0.1
			c-0.3,0.1-0.7,0.3-1.1,0.4l-37.7,13c-0.4,0.1-0.8,0.2-1.1,0.3c-0.6,0.2-1.1,0.3-1.7,0.5c-0.7,0.2-1.5,0.3-2.2,0.4
			c-0.5,0.1-0.9,0.1-1.4,0.2c-0.6,0.1-1.2,0.1-1.8,0.2c-0.1,0-0.2,0-0.4,0c-1,0.1-1.9,0.1-2.9,0.1c0,0,0,0-0.1,0c-1,0-2.1,0-3.1-0.1
			c0,0,0,0,0,0c-1-0.1-2-0.2-3-0.3c0,0,0,0-0.1,0c-0.9-0.1-1.9-0.3-2.7-0.5c0,0-0.1,0-0.1,0c-0.9-0.2-1.7-0.4-2.5-0.7l-37.1-12.7
			c-0.2-0.1-0.4-0.1-0.6-0.2c-0.2-0.1-0.4-0.1-0.5-0.2c-0.2-0.1-0.3-0.2-0.5-0.2c-0.2-0.1-0.3-0.1-0.5-0.2c-0.1-0.1-0.3-0.1-0.4-0.2
			c-0.1-0.1-0.3-0.2-0.4-0.2c-0.1-0.1-0.2-0.2-0.3-0.2c-0.1-0.1-0.2-0.2-0.3-0.3c-0.1-0.1-0.2-0.2-0.3-0.3c-0.1-0.1-0.2-0.2-0.2-0.2
			c-0.1-0.1-0.2-0.2-0.2-0.3c0-0.1-0.1-0.1-0.1-0.2c0-0.1-0.1-0.2-0.1-0.3c-0.1-0.3-0.2-0.5-0.2-0.8l0.1,16.6c0,0.3,0.1,0.5,0.2,0.8
			c0,0.1,0.1,0.2,0.1,0.3c0,0.1,0.1,0.1,0.1,0.2c0.1,0.1,0.1,0.2,0.2,0.3c0.1,0.1,0.1,0.1,0.2,0.2c0.1,0.1,0.2,0.2,0.3,0.3
			c0.1,0.1,0.2,0.1,0.2,0.2c0.1,0.1,0.3,0.2,0.4,0.3c0.1,0.1,0.2,0.1,0.3,0.2c0.2,0.1,0.3,0.2,0.5,0.3c0.1,0.1,0.2,0.1,0.3,0.2
			c0.2,0.1,0.4,0.2,0.6,0.3c0.1,0.1,0.3,0.1,0.4,0.2c0.2,0.1,0.4,0.2,0.7,0.2c0,0,0,0,0,0l37.1,12.7c0.4,0.1,0.9,0.3,1.3,0.4
			c0.4,0.1,0.8,0.2,1.1,0.3c0,0,0.1,0,0.1,0c0,0,0.1,0,0.1,0c0.3,0.1,0.6,0.1,0.9,0.2c0.3,0.1,0.7,0.1,1,0.2c0.3,0,0.6,0.1,0.8,0.1
			c0,0,0,0,0.1,0c0,0,0.1,0,0.1,0c0.3,0,0.7,0.1,1,0.1c0.3,0,0.7,0.1,1,0.1c0.3,0,0.6,0,0.9,0.1c0,0,0,0,0,0c0,0,0,0,0,0
			c0.3,0,0.7,0,1,0.1c0.3,0,0.7,0,1.1,0c0.3,0,0.6,0,1,0c0,0,0,0,0.1,0c0,0,0,0,0.1,0c0.4,0,0.8,0,1.1,0c0.4,0,0.8,0,1.3-0.1
			c0.2,0,0.3,0,0.5,0c0.1,0,0.2,0,0.4,0c0.2,0,0.5,0,0.7-0.1c0.4,0,0.7-0.1,1.1-0.1c0.5-0.1,1-0.1,1.4-0.2c0.1,0,0.3,0,0.4-0.1
			c0.5-0.1,1.1-0.2,1.6-0.3c0.1,0,0.1,0,0.2-0.1c0.6-0.1,1.2-0.3,1.7-0.5c0.3-0.1,0.6-0.1,0.9-0.2c0.1,0,0.2-0.1,0.2-0.1l37.7-13
			c0.4-0.1,0.7-0.3,1.1-0.4c0,0,0,0,0,0c0.1,0,0.2-0.1,0.3-0.1c0.2-0.1,0.4-0.2,0.6-0.3c0,0,0.1,0,0.1-0.1c0.1,0,0.2-0.1,0.2-0.1
			c0.1-0.1,0.2-0.1,0.3-0.2c0.1,0,0.2-0.1,0.2-0.2c0.1,0,0.1-0.1,0.2-0.1c0,0,0.1-0.1,0.1-0.1c0.2-0.1,0.3-0.2,0.5-0.3c0,0,0,0,0,0
			c0,0,0,0,0.1-0.1c0.1-0.1,0.2-0.2,0.3-0.3c0.1-0.1,0.1-0.1,0.1-0.2c0,0,0.1-0.1,0.1-0.1c0,0,0-0.1,0.1-0.1
			c0.1-0.1,0.2-0.2,0.2-0.3c0,0,0,0,0,0c0,0,0-0.1,0-0.1c0-0.1,0.1-0.2,0.1-0.2c0-0.1,0-0.1,0.1-0.2c0,0,0-0.1,0-0.1c0,0,0,0,0-0.1
			c0-0.1,0-0.3,0-0.4c0,0,0,0,0,0L497.7,741.4z"/>
		<g>
			<path class="st3" d="M493,737.5c6.3,2.2,6.2,5.7-0.2,8l-37.7,13c-6.4,2.2-16.8,2.3-23.1,0.1l-37.1-12.7c-6.3-2.2-6.3-5.7,0.2-8
				l37.7-13c6.4-2.2,16.8-2.3,23.2-0.1L493,737.5z"/>
		</g>
	</g>
	<g>
		<path class="st1" d="M643.9,727.1c0,0.2,0,0.3-0.1,0.5c0,0,0,0.1,0,0.1c0,0.1-0.1,0.3-0.2,0.4c0,0,0,0.1,0,0.1
			c-0.1,0.2-0.2,0.3-0.3,0.5c0,0-0.1,0.1-0.1,0.1c-0.1,0.1-0.3,0.3-0.4,0.4c0,0,0,0-0.1,0.1c-0.2,0.2-0.4,0.3-0.6,0.4
			c-0.1,0-0.1,0.1-0.2,0.1c-0.2,0.1-0.4,0.2-0.6,0.3c-0.1,0-0.2,0.1-0.2,0.1c-0.2,0.1-0.4,0.2-0.7,0.3c-0.1,0-0.2,0.1-0.3,0.1
			c-0.3,0.1-0.7,0.3-1.1,0.4l-37.7,13c-0.4,0.1-0.8,0.2-1.1,0.3c-0.6,0.2-1.1,0.3-1.7,0.5c-0.7,0.2-1.5,0.3-2.2,0.4
			c-0.5,0.1-0.9,0.1-1.4,0.2c-0.6,0.1-1.2,0.1-1.8,0.2c-0.1,0-0.2,0-0.4,0c-1,0.1-1.9,0.1-2.9,0.1c0,0,0,0-0.1,0c-1,0-2.1,0-3.1-0.1
			c0,0,0,0,0,0c-1-0.1-2-0.2-3-0.3c0,0,0,0-0.1,0c-0.9-0.1-1.9-0.3-2.7-0.5c0,0-0.1,0-0.1,0c-0.9-0.2-1.7-0.4-2.5-0.7L541,731.6
			c-0.2-0.1-0.4-0.1-0.6-0.2c-0.2-0.1-0.4-0.1-0.5-0.2c-0.2-0.1-0.3-0.2-0.5-0.2c-0.2-0.1-0.3-0.1-0.5-0.2c-0.1-0.1-0.3-0.1-0.4-0.2
			c-0.1-0.1-0.3-0.2-0.4-0.2c-0.1-0.1-0.2-0.2-0.3-0.2c-0.1-0.1-0.2-0.2-0.3-0.3c-0.1-0.1-0.2-0.2-0.3-0.3c-0.1-0.1-0.2-0.2-0.2-0.2
			c-0.1-0.1-0.2-0.2-0.2-0.3c0-0.1-0.1-0.1-0.1-0.2c0-0.1-0.1-0.2-0.1-0.3c-0.1-0.3-0.2-0.5-0.2-0.8l0.1,16.6c0,0.3,0.1,0.5,0.2,0.8
			c0,0.1,0.1,0.2,0.1,0.3c0,0.1,0.1,0.1,0.1,0.2c0.1,0.1,0.1,0.2,0.2,0.3c0.1,0.1,0.1,0.1,0.2,0.2c0.1,0.1,0.2,0.2,0.3,0.3
			c0.1,0.1,0.2,0.1,0.2,0.2c0.1,0.1,0.3,0.2,0.4,0.3c0.1,0.1,0.2,0.1,0.3,0.2c0.2,0.1,0.3,0.2,0.5,0.3c0.1,0.1,0.2,0.1,0.3,0.2
			c0.2,0.1,0.4,0.2,0.6,0.3c0.1,0.1,0.3,0.1,0.4,0.2c0.2,0.1,0.4,0.2,0.7,0.2c0,0,0,0,0,0l37.1,12.7c0.4,0.1,0.9,0.3,1.3,0.4
			c0.4,0.1,0.8,0.2,1.1,0.3c0,0,0.1,0,0.1,0c0,0,0.1,0,0.1,0c0.3,0.1,0.6,0.1,0.9,0.2c0.3,0.1,0.7,0.1,1,0.2c0.3,0,0.6,0.1,0.8,0.1
			c0,0,0,0,0.1,0c0,0,0.1,0,0.1,0c0.3,0,0.7,0.1,1,0.1c0.3,0,0.7,0.1,1,0.1c0.3,0,0.6,0,0.9,0.1c0,0,0,0,0,0c0,0,0,0,0,0
			c0.3,0,0.7,0,1,0.1c0.3,0,0.7,0,1.1,0c0.3,0,0.6,0,1,0c0,0,0,0,0.1,0c0,0,0,0,0.1,0c0.4,0,0.8,0,1.1,0c0.4,0,0.8,0,1.3-0.1
			c0.2,0,0.3,0,0.5,0c0.1,0,0.2,0,0.4,0c0.2,0,0.5,0,0.7-0.1c0.4,0,0.7-0.1,1.1-0.1c0.5-0.1,1-0.1,1.4-0.2c0.1,0,0.3,0,0.4-0.1
			c0.5-0.1,1.1-0.2,1.6-0.3c0.1,0,0.1,0,0.2-0.1c0.6-0.1,1.2-0.3,1.7-0.5c0.3-0.1,0.6-0.1,0.9-0.2c0.1,0,0.2-0.1,0.2-0.1l37.7-13
			c0.4-0.1,0.7-0.3,1.1-0.4c0,0,0,0,0,0c0.1,0,0.2-0.1,0.3-0.1c0.2-0.1,0.4-0.2,0.6-0.3c0,0,0.1,0,0.1-0.1c0.1,0,0.2-0.1,0.2-0.1
			c0.1-0.1,0.2-0.1,0.3-0.2c0.1,0,0.2-0.1,0.2-0.2c0.1,0,0.1-0.1,0.2-0.1c0,0,0.1-0.1,0.1-0.1c0.2-0.1,0.3-0.2,0.5-0.3c0,0,0,0,0,0
			c0,0,0,0,0.1-0.1c0.1-0.1,0.2-0.2,0.3-0.3c0.1-0.1,0.1-0.1,0.1-0.2c0,0,0.1-0.1,0.1-0.1c0,0,0-0.1,0.1-0.1
			c0.1-0.1,0.2-0.2,0.2-0.3c0,0,0,0,0,0c0,0,0-0.1,0-0.1c0-0.1,0.1-0.2,0.1-0.2c0-0.1,0-0.1,0.1-0.2c0,0,0-0.1,0-0.1c0,0,0,0,0-0.1
			c0-0.1,0-0.3,0-0.4c0,0,0,0,0,0L643.9,727.1z"/>
		<g>
			<path class="st8" d="M639.2,723.2c6.3,2.2,6.2,5.7-0.2,8l-37.7,13c-6.4,2.2-16.8,2.3-23.1,0.1L541,731.6c-6.3-2.2-6.3-5.7,0.2-8
				l37.7-13c6.4-2.2,16.8-2.3,23.2-0.1L639.2,723.2z"/>
		</g>
	</g>
</g>
</svg>
